<svg width="651" height="801" viewBox="0 0 651 801" fill="none" xmlns="http://www.w3.org/2000/svg">
<g clip-path="url(#clip0_265_83)">
<path d="M209.5 285.856C225.587 285.856 241.516 289.025 256.379 295.181C271.241 301.337 284.745 310.36 296.121 321.735C307.496 333.11 316.519 346.615 322.675 361.477C328.831 376.34 332 392.269 332 408.356V701.856H86.9999V408.356C86.9999 392.269 90.1685 376.34 96.3247 361.477C102.481 346.615 111.504 333.111 122.879 321.735C134.254 310.36 147.759 301.337 162.621 295.181C177.483 289.024 193.413 285.856 209.5 285.856Z" fill="#E6E6E6"/>
<path d="M167 433.134H145V506.134H167V433.134Z" fill="white"/>
<path d="M246 512.134H173V578.134H246V512.134Z" fill="white"/>
<path d="M246 433.134H173V506.134H246V433.134Z" fill="white"/>
<path d="M252 427.134H274V425.633C274.008 416.448 272.049 407.367 268.254 399.002C264.459 390.637 258.917 383.181 252 377.137V427.134Z" fill="white"/>
<path d="M173 427.134H246V372.46C235.266 365.067 222.534 361.116 209.5 361.134C196.465 361.116 183.734 365.067 173 372.461V427.134Z" fill="white"/>
<path d="M167 512.134H145V562.134C145 566.377 146.686 570.447 149.686 573.447C152.687 576.448 156.756 578.134 161 578.134H167V512.134Z" fill="white"/>
<path d="M252 512.134V578.134H258C262.243 578.134 266.313 576.448 269.314 573.447C272.314 570.447 274 566.377 274 562.134V512.134H252Z" fill="white"/>
<path d="M167 427.134V377.137C160.083 383.181 154.541 390.637 150.746 399.002C146.951 407.367 144.992 416.448 145 425.633V427.134H167Z" fill="white"/>
<path d="M274 433.134H252V506.134H274V433.134Z" fill="white"/>
<path d="M314.5 530.134C321.68 530.134 327.5 524.313 327.5 517.134C327.5 509.954 321.68 504.134 314.5 504.134C307.32 504.134 301.5 509.954 301.5 517.134C301.5 524.313 307.32 530.134 314.5 530.134Z" fill="#3F3D56"/>
<path d="M11.1903 512.435H-134.797C-135.733 512.434 -136.631 512.061 -137.293 511.399C-137.955 510.737 -138.328 509.839 -138.329 508.903V499.484C-138.328 498.548 -137.955 497.65 -137.293 496.988C-136.631 496.326 -135.733 495.953 -134.797 495.952H11.1903C12.1267 495.953 13.0245 496.326 13.6866 496.988C14.3488 497.65 14.7212 498.548 14.7222 499.484V508.903C14.7212 509.839 14.3488 510.737 13.6866 511.399C13.0245 512.061 12.1267 512.434 11.1903 512.435Z" fill="#E6E6E6"/>
<path d="M447.657 392.368H430.39V449.664H447.657V392.368Z" fill="#F2F2F2"/>
<path d="M509.662 392.368H452.366V449.664H509.662V392.368Z" fill="#F2F2F2"/>
<path d="M531.639 392.368H514.372V449.664H531.639V392.368Z" fill="#F2F2F2"/>
<path d="M514.372 387.658H531.639V386.481C531.645 379.271 530.107 372.144 527.129 365.578C524.15 359.013 519.801 353.161 514.372 348.417V387.658Z" fill="#F2F2F2"/>
<path d="M509.662 454.373H452.366V506.174H509.662V454.373Z" fill="#F2F2F2"/>
<path d="M447.657 454.373H430.39V493.616C430.39 496.947 431.713 500.141 434.068 502.496C436.423 504.851 439.617 506.174 442.948 506.174H447.657L447.657 454.373Z" fill="#F2F2F2"/>
<path d="M514.372 454.373V506.174H519.081C520.73 506.175 522.363 505.85 523.887 505.219C525.41 504.587 526.795 503.662 527.961 502.496C529.127 501.33 530.052 499.946 530.683 498.422C531.314 496.899 531.639 495.266 531.639 493.616V454.373H514.372Z" fill="#F2F2F2"/>
<path d="M447.657 387.658V348.417C442.228 353.161 437.878 359.013 434.9 365.578C431.921 372.144 430.384 379.271 430.39 386.481V387.658H447.657Z" fill="#F2F2F2"/>
<path d="M452.366 387.658H509.662V344.746C501.237 338.943 491.245 335.842 481.014 335.856C470.784 335.842 460.792 338.943 452.366 344.746V387.658Z" fill="#F2F2F2"/>
<path d="M554.19 512.435H408.203C407.267 512.434 406.369 512.061 405.707 511.399C405.045 510.737 404.672 509.839 404.671 508.903V499.484C404.672 498.548 405.045 497.65 405.707 496.988C406.369 496.326 407.267 495.953 408.203 495.952H554.19C555.127 495.953 556.025 496.326 556.687 496.988C557.349 497.65 557.721 498.548 557.722 499.484V508.903C557.721 509.839 557.349 510.737 556.687 511.399C556.025 512.061 555.127 512.434 554.19 512.435Z" fill="#E6E6E6"/>
<path d="M597.5 702.856H-178.5C-187.249 702.846 -195.637 699.366 -201.824 693.18C-208.01 686.993 -211.49 678.605 -211.5 669.856V166.856C-211.49 158.107 -208.01 149.719 -201.824 143.532C-195.637 137.346 -187.249 133.866 -178.5 133.856H597.5C606.249 133.866 614.637 137.346 620.824 143.532C627.01 149.719 630.49 158.107 630.5 166.856V669.856C630.49 678.605 627.01 686.993 620.824 693.18C614.637 699.366 606.249 702.846 597.5 702.856ZM-178.5 135.856C-186.719 135.865 -194.598 139.134 -200.41 144.946C-206.222 150.758 -209.491 158.637 -209.5 166.856V669.856C-209.491 678.075 -206.222 685.954 -200.41 691.766C-194.598 697.578 -186.719 700.847 -178.5 700.856H597.5C605.719 700.847 613.598 697.578 619.41 691.766C625.222 685.954 628.491 678.075 628.5 669.856V166.856C628.491 158.637 625.222 150.758 619.41 144.946C613.598 139.134 605.719 135.865 597.5 135.856H-178.5Z" fill="#CCCCCC"/>
<path d="M-198.952 199.626C-207.259 199.619 -215.26 196.487 -221.363 190.851C-227.467 185.216 -231.226 177.49 -231.893 169.209C-232.56 160.929 -230.087 152.7 -224.965 146.16C-219.843 139.619 -212.447 135.246 -204.248 133.909L201.306 0.658338C206.576 -0.212843 211.953 -0.21944 217.225 0.638806L623.319 133.931C631.966 135.358 639.693 140.159 644.802 147.28C649.912 154.401 651.985 163.259 650.567 171.907C649.149 180.556 644.355 188.288 637.24 193.404C630.124 198.521 621.268 200.603 612.618 199.193C608.243 198.568 213.096 142.147 209.492 141.999C205.902 142.147 -189.63 198.624 -193.625 199.194C-195.386 199.481 -197.167 199.626 -198.952 199.626Z" fill="#185E55"/>
<path d="M383.435 623.406C384.272 622.32 384.86 621.064 385.159 619.726C385.457 618.388 385.459 617.001 385.164 615.662C384.868 614.323 384.283 613.066 383.448 611.978C382.614 610.89 381.552 609.998 380.336 609.366L382.189 588.018L369.491 583.728L367.297 613.911C366.369 616.025 366.249 618.405 366.959 620.601C367.669 622.797 369.16 624.656 371.149 625.827C373.138 626.997 375.488 627.397 377.752 626.951C380.017 626.505 382.039 625.243 383.435 623.406Z" fill="#915C5C"/>
<path d="M446.804 789.38L435.371 789.379L429.935 745.283L446.808 745.284L446.804 789.38Z" fill="#915C5C"/>
<path d="M427.205 786.112H449.253V799.994H413.323C413.323 798.171 413.682 796.366 414.38 794.682C415.078 792.998 416.1 791.467 417.389 790.178C418.678 788.889 420.209 787.867 421.893 787.169C423.577 786.471 425.382 786.112 427.205 786.112Z" fill="#2F2E41"/>
<path d="M420.853 760.12L409.751 762.848L393.945 721.325L410.331 717.299L420.853 760.12Z" fill="#915C5C"/>
<path d="M401.042 761.625L422.453 756.364L425.765 769.845L390.873 778.418C390.438 776.648 390.356 774.809 390.632 773.007C390.907 771.205 391.535 769.475 392.479 767.916C393.424 766.356 394.666 764.998 396.135 763.919C397.604 762.839 399.271 762.06 401.042 761.625Z" fill="#2F2E41"/>
<path d="M433.423 775.322C432.379 775.324 431.372 774.938 430.597 774.24C429.822 773.542 429.334 772.581 429.227 771.543L416.071 648.99L404.624 686.465L420.838 744.998C421.117 746.002 421.015 747.073 420.553 748.006C420.09 748.939 419.299 749.669 418.332 750.055L405.442 755.21C404.912 755.423 404.344 755.525 403.772 755.512C403.201 755.499 402.638 755.369 402.118 755.133C401.598 754.896 401.131 754.556 400.746 754.133C400.361 753.711 400.065 753.215 399.877 752.675L380.007 695.666C377.831 689.442 376.869 682.858 377.171 676.271L379.945 614.748L452.987 617.84L451.847 770.055C451.833 771.114 451.425 772.131 450.701 772.905C449.978 773.679 448.991 774.156 447.935 774.241L433.75 775.31C433.641 775.318 433.531 775.322 433.423 775.322Z" fill="#2F2E41"/>
<path d="M421.326 478.592C434.891 478.592 445.887 467.596 445.887 454.031C445.887 440.467 434.891 429.47 421.326 429.47C407.761 429.47 396.765 440.467 396.765 454.031C396.765 467.596 407.761 478.592 421.326 478.592Z" fill="#915C5C"/>
<path d="M439.388 621.843C432.92 621.843 424.884 621.314 416.571 620.767C405.21 620.019 393.464 619.247 384.696 619.754C383.512 619.871 382.317 619.684 381.227 619.209C380.136 618.733 379.185 617.987 378.464 617.04C369.425 605.466 383.367 560.333 383.965 558.417L395.312 507.949L395.799 508.059L395.312 507.949C397.807 496.849 405.782 488.661 416.124 486.581C425.804 484.636 435.167 488.512 441.172 496.956C441.491 497.404 441.809 497.863 442.128 498.335C461.68 527.291 450.621 599.231 449.88 603.874C450.913 605.111 456.498 612.106 454.962 616.965C454.338 618.941 452.642 620.288 449.92 620.968C446.453 621.655 442.92 621.948 439.388 621.843Z" fill="#CCCCCC"/>
<path d="M385.092 621.866C382.867 621.866 379.867 621.045 375.82 619.361C374.081 618.637 368.789 616.435 375.213 560.289C378.369 532.709 382.89 505.322 382.935 505.048L382.979 504.784L383.222 504.674C383.339 504.621 394.884 499.328 396.892 492.528C396.962 492.292 397.04 492.064 397.126 491.844C397.678 490.332 398.793 489.091 400.238 488.382C401.682 487.672 403.345 487.548 404.88 488.035C406.5 488.422 407.913 489.411 408.831 490.802C409.749 492.193 410.103 493.881 409.822 495.523C409.123 499.959 407.778 504.268 405.832 508.315C400.398 519.525 396.718 549.242 396.681 549.541C396.474 552.079 391.543 612.213 390.593 616.777C390.261 618.37 389.651 620.321 387.859 621.267C387 621.69 386.05 621.896 385.092 621.866Z" fill="#2F2E41"/>
<path d="M411.924 619.561C411.475 619.561 411.039 619.411 410.685 619.136C403.459 613.645 415.153 547.084 422.089 524.12C423.478 519.522 424.715 515.583 425.765 512.414C427.68 506.727 429.017 500.862 429.755 494.907C430.136 491.682 430.966 489.84 432.292 489.275C433.213 488.882 434.296 489.149 435.511 490.068C441.917 489.753 448.143 492.37 453.913 495.249L459.105 497.84L464.931 600.989C464.767 607.572 451.79 612.219 446.127 612.516C437.039 612.992 420.719 614.472 413.527 619.025C413.055 619.354 412.499 619.54 411.924 619.561Z" fill="#2F2E41"/>
<path d="M379.466 600.208C379.38 600.208 379.294 600.205 379.208 600.2L367.44 599.476C366.855 599.44 366.283 599.282 365.761 599.013C365.239 598.744 364.779 598.369 364.41 597.913C364.041 597.456 363.771 596.928 363.618 596.362C363.464 595.795 363.43 595.203 363.518 594.622L368.843 559.344L378.867 509.846C379.114 508.627 379.614 507.473 380.336 506.46C381.057 505.446 381.983 504.596 383.055 503.963C384.126 503.331 385.318 502.93 386.554 502.788C387.79 502.645 389.042 502.764 390.229 503.137C392.258 503.785 393.989 505.136 395.109 506.948C396.229 508.759 396.664 510.912 396.336 513.016L388.372 562.613L383.658 596.56C383.513 597.57 383.01 598.494 382.24 599.163C381.471 599.833 380.486 600.204 379.466 600.208Z" fill="#2F2E41"/>
<path d="M425.813 477.988C429.509 478.068 433.181 477.365 436.586 475.925C439.992 474.485 443.054 472.34 445.571 469.632C448.089 466.924 450.005 463.714 451.193 460.213C452.382 456.712 452.816 452.999 452.467 449.318C452.118 445.637 450.995 442.071 449.17 438.856C447.345 435.64 444.86 432.847 441.879 430.66C438.898 428.473 435.487 426.942 431.872 426.167C428.257 425.392 424.518 425.39 420.903 426.163C415.502 422.884 409.222 420.677 402.928 421.238C396.634 421.799 390.41 425.536 388.056 431.4C385.702 437.264 388.231 444.994 394.083 447.377C397.835 448.905 402.072 448.164 406.076 447.548C410.08 446.932 414.447 446.53 417.932 448.596C421.417 450.662 422.983 456.201 419.862 458.784C418.208 460.208 417.027 462.102 416.476 464.213C415.925 466.325 416.03 468.554 416.778 470.605C418.347 474.661 422.627 477.92 425.813 477.988Z" fill="#2F2E41"/>
<path d="M371.37 480.179C364.969 480.183 358.831 482.728 354.306 487.256C349.782 491.784 347.24 497.923 347.24 504.324C347.24 510.725 349.782 516.865 354.306 521.392C358.831 525.92 364.969 528.466 371.37 528.47H371.37C377.771 528.466 383.909 525.92 388.434 521.392C392.958 516.865 395.5 510.725 395.5 504.324C395.5 497.923 392.958 491.784 388.434 487.256C383.909 482.729 377.771 480.183 371.37 480.179Z" fill="#44B7D0"/>
<path d="M369.079 514.352C368.443 514.353 367.825 514.148 367.316 513.766L367.285 513.743L360.644 508.663C360.337 508.428 360.079 508.133 359.885 507.798C359.691 507.462 359.565 507.092 359.514 506.708C359.464 506.324 359.489 505.933 359.589 505.559C359.689 505.185 359.862 504.834 360.098 504.526C360.334 504.219 360.628 503.961 360.963 503.767C361.299 503.573 361.669 503.447 362.053 503.396C362.438 503.345 362.828 503.371 363.202 503.471C363.577 503.571 363.928 503.744 364.235 503.98L368.536 507.278L378.699 494.019C378.935 493.711 379.229 493.453 379.564 493.26C379.9 493.066 380.27 492.94 380.654 492.889C381.038 492.838 381.428 492.864 381.802 492.964C382.177 493.064 382.527 493.237 382.835 493.473L382.836 493.473L382.772 493.561L382.837 493.473C383.457 493.95 383.863 494.653 383.965 495.428C384.068 496.204 383.858 496.988 383.383 497.609L371.429 513.198C371.152 513.557 370.796 513.848 370.389 514.047C369.982 514.247 369.535 514.35 369.082 514.349L369.079 514.352Z" fill="white"/>
<path d="M422.234 547.134H337.489C336.362 547.133 335.246 547.355 334.205 547.786C333.163 548.218 332.217 548.85 331.42 549.647C330.623 550.444 329.991 551.39 329.56 552.431C329.129 553.472 328.907 554.588 328.907 555.716V640.46C328.907 641.587 329.129 642.703 329.56 643.745C329.991 644.786 330.623 645.732 331.42 646.529C332.217 647.326 333.163 647.958 334.205 648.389C335.246 648.82 336.362 649.042 337.489 649.042H422.234C423.361 649.042 424.477 648.82 425.518 648.389C426.559 647.958 427.506 647.326 428.302 646.529C429.099 645.732 429.732 644.786 430.163 643.745C430.594 642.703 430.816 641.587 430.815 640.46V555.716C430.816 554.588 430.594 553.472 430.163 552.431C429.732 551.39 429.099 550.444 428.302 549.647C427.506 548.85 426.559 548.218 425.518 547.786C424.477 547.355 423.361 547.133 422.234 547.134Z" fill="#44B7D0"/>
<path d="M403.148 610.502L363.136 618.294C360.763 618.754 358.304 618.253 356.3 616.902C354.295 615.551 352.908 613.459 352.443 611.087L349.368 595.293C348.908 592.92 349.409 590.461 350.76 588.456C352.111 586.452 354.203 585.065 356.575 584.6L396.586 576.808C398.96 576.349 401.419 576.85 403.423 578.201C405.428 579.552 406.815 581.643 407.279 584.016L410.355 599.81C410.814 602.183 410.314 604.642 408.962 606.646C407.611 608.651 405.52 610.038 403.148 610.502Z" fill="white"/>
<path d="M395.143 591.843L364.608 597.79C364.049 597.899 363.47 597.781 362.998 597.463C362.527 597.145 362.2 596.652 362.092 596.094C361.983 595.535 362.1 594.957 362.418 594.485C362.737 594.013 363.229 593.687 363.787 593.578L394.323 587.632C394.599 587.578 394.884 587.579 395.16 587.634C395.436 587.69 395.699 587.8 395.933 587.958C396.167 588.115 396.367 588.317 396.523 588.552C396.679 588.787 396.787 589.05 396.84 589.327C396.894 589.604 396.893 589.888 396.837 590.165C396.781 590.441 396.671 590.703 396.513 590.937C396.355 591.171 396.153 591.371 395.918 591.527C395.683 591.682 395.42 591.79 395.143 591.843Z" fill="#185E55"/>
<path d="M389.208 600.649L373.414 603.725C373.137 603.779 372.853 603.778 372.576 603.722C372.3 603.666 372.038 603.556 371.804 603.398C371.571 603.241 371.37 603.039 371.215 602.804C371.059 602.569 370.951 602.306 370.898 602.029C370.844 601.753 370.845 601.468 370.901 601.192C370.957 600.916 371.067 600.654 371.224 600.42C371.382 600.186 371.584 599.986 371.819 599.83C372.054 599.675 372.317 599.567 372.593 599.513L388.387 596.438C388.946 596.329 389.525 596.446 389.997 596.764C390.468 597.082 390.795 597.575 390.903 598.133C391.012 598.692 390.895 599.271 390.577 599.743C390.259 600.214 389.766 600.541 389.208 600.649H389.208Z" fill="#185E55"/>
<path d="M430.815 555.716V566.979H328.907V555.716C328.907 554.588 329.129 553.472 329.56 552.431C329.991 551.39 330.623 550.444 331.42 549.647C332.217 548.85 333.163 548.218 334.205 547.786C335.246 547.355 336.362 547.133 337.489 547.134H422.234C423.361 547.133 424.477 547.355 425.518 547.786C426.559 548.218 427.506 548.85 428.302 549.647C429.099 550.444 429.732 551.39 430.163 552.431C430.594 553.472 430.816 554.588 430.815 555.716Z" fill="#3F3D56"/>
<path d="M419.668 561.592C420.386 560.424 421.351 559.428 422.496 558.673C423.64 557.919 424.936 557.424 426.292 557.225C427.649 557.025 429.032 557.125 430.346 557.518C431.659 557.911 432.87 558.588 433.894 559.499L453.189 550.179L461.712 560.523L434.279 573.302C432.634 574.921 430.452 575.879 428.147 575.996C425.841 576.113 423.574 575.38 421.773 573.937C419.972 572.493 418.763 570.44 418.375 568.164C417.987 565.889 418.447 563.551 419.668 561.592Z" fill="#915C5C"/>
<path d="M446.472 571.602C445.522 571.602 444.599 571.282 443.853 570.694C443.107 570.106 442.58 569.284 442.357 568.361L439.554 556.711C439.341 555.834 439.414 554.913 439.763 554.081C440.112 553.249 440.719 552.552 441.495 552.091L458.397 541.976L449.757 510.341C449.148 508.093 449.281 505.708 450.136 503.541H450.136C450.951 501.486 452.38 499.733 454.228 498.52C456.075 497.307 458.251 496.692 460.461 496.76C462.67 496.828 464.804 497.575 466.574 498.899C468.344 500.223 469.662 502.061 470.35 504.161L479.889 533.286C481.061 536.837 481.07 540.668 479.915 544.224C478.76 547.78 476.502 550.875 473.468 553.06L448.949 570.798C448.229 571.32 447.362 571.601 446.472 571.602Z" fill="#2F2E41"/>
<path d="M474.401 800.856H372.401C372.136 800.856 371.882 800.751 371.694 800.563C371.507 800.376 371.401 800.121 371.401 799.856C371.401 799.591 371.507 799.336 371.694 799.149C371.882 798.961 372.136 798.856 372.401 798.856H474.401C474.667 798.856 474.921 798.961 475.109 799.149C475.296 799.336 475.401 799.591 475.401 799.856C475.401 800.121 475.296 800.376 475.109 800.563C474.921 800.751 474.667 800.856 474.401 800.856Z" fill="#CCCCCC"/>
</g>
<defs>
<clipPath id="clip0_265_83">
<rect width="883" height="800.856" fill="white" transform="translate(-232)"/>
</clipPath>
</defs>
</svg>
